<?xml version="1.0" encoding="UTF-8"?>
<!DOCTYPE svg PUBLIC "-//W3C//DTD SVG 1.1//EN" "http://www.w3.org/Graphics/SVG/1.1/DTD/svg11.dtd">
<!-- Creator: CorelDRAW (Wersja próbna) -->
<svg xmlns="http://www.w3.org/2000/svg" xml:space="preserve" width="105mm" height="148.5mm" version="1.1" style="shape-rendering:geometricPrecision; text-rendering:geometricPrecision; image-rendering:optimizeQuality; fill-rule:evenodd; clip-rule:evenodd"
viewBox="0 0 10500 14850"
 xmlns:xlink="http://www.w3.org/1999/xlink"
 xmlns:xodm="http://www.corel.com/coreldraw/odm/2003">
 <defs>
  <style type="text/css">
   <![CDATA[
    .fil31 {fill:white;fill-rule:nonzero}
    .fil17 {fill:#163560;fill-rule:nonzero}
    .fil27 {fill:#2B478B;fill-rule:nonzero}
    .fil24 {fill:#2C3A64;fill-rule:nonzero}
    .fil22 {fill:#2E3552;fill-rule:nonzero}
    .fil26 {fill:#82B378;fill-rule:nonzero}
    .fil5 {fill:#88B9FF;fill-rule:nonzero}
    .fil29 {fill:#8FA2FF;fill-rule:nonzero}
    .fil10 {fill:#97C6FF;fill-rule:nonzero}
    .fil14 {fill:#AEC3FF;fill-rule:nonzero}
    .fil6 {fill:#AFCDFB;fill-rule:nonzero}
    .fil21 {fill:#B0D0FF;fill-rule:nonzero}
    .fil11 {fill:#BBD5F9;fill-rule:nonzero}
    .fil3 {fill:#CDE0FB;fill-rule:nonzero}
    .fil1 {fill:#DCE9FA;fill-rule:nonzero}
    .fil2 {fill:#DFEBFD;fill-rule:nonzero}
    .fil18 {fill:#E8945B;fill-rule:nonzero}
    .fil7 {fill:#EA642F;fill-rule:nonzero}
    .fil0 {fill:#EBF3FA;fill-rule:nonzero}
    .fil30 {fill:#ED985F;fill-rule:nonzero}
    .fil25 {fill:#EF802E;fill-rule:nonzero}
    .fil20 {fill:#F2C9A5;fill-rule:nonzero}
    .fil16 {fill:#F3A36C;fill-rule:nonzero}
    .fil13 {fill:#F7A76B;fill-rule:nonzero}
    .fil8 {fill:#F99746;fill-rule:nonzero}
    .fil4 {fill:#F9DDBF;fill-rule:nonzero}
    .fil12 {fill:#FC7A4C;fill-rule:nonzero}
    .fil15 {fill:#FFB27D;fill-rule:nonzero}
    .fil28 {fill:#FFB380;fill-rule:nonzero}
    .fil19 {fill:#FFE6CF;fill-rule:nonzero}
    .fil9 {fill:#FFEBD9;fill-rule:nonzero}
    .fil23 {fill:white;fill-rule:nonzero}
   ]]>
  </style>
 </defs>
 <g id="Warstwa_x0020_1">
  <metadata id="CorelCorpID_0Corel-Layer"/>
  <path class="fil0" d="M-19185.26 25292.68c0,0 -3534.55,-2693.28 -1069.94,-9130.95 1452.99,-3795.36 6354.44,-3212.74 6106.46,-10029.46 -247.99,-6816.76 7030.46,-12430.34 17491.94,-8602.87 3410.3,1247.65 5014.03,3102.94 7622.82,2095.23 5053.89,-1952.15 11964.8,-1147.22 12183.18,5114.73 346.43,9935.41 5490.28,5501.94 5910.61,12750.04 143.41,2469.98 -177.8,5011.92 -2814.63,7803.27l-45430.44 0z"/>
  <path class="fil1" d="M2032.81 5983.3c-946.5,-2236.72 -3140.25,-5113.99 -3165.65,-5796.08 -0.35,-6.83 -0.53,-13.57 -0.53,-20.24 -5.65,-264.12 210.26,-438.02 432.33,-438.02 113.94,0 229.65,45.77 318.03,148.6 1959.33,2281.91 2415.82,6105.74 2415.82,6105.74z"/>
  <path class="fil1" d="M2270.94 7078c-1946.45,-2460.22 -5665.78,-5289.87 -5931.6,-6130.52 -99.66,-315.22 -59.8,-517.14 29.1,-646.36 85.02,-123.72 224.02,-188.45 366.01,-188.45 85.72,0 172.51,23.62 249.06,72.16 3334.98,2113.76 5287.43,6893.18 5287.43,6893.18z"/>
  <path class="fil2" d="M-2453.82 4320c0,0 -123.65,2932.57 -667.98,2875.85 -544.16,-56.71 373.41,-3257.8 373.41,-3257.8 0,0 -2319.69,-1862.54 -3367.44,-2001.34 0,0 982.49,3119.77 469.02,2930.82 -513.47,-188.93 -1686.79,-3387.81 -1686.79,-3387.81 0,0 -2562.36,-1117.62 -3360.56,369.25 -798.19,1486.89 -288.26,2441.43 85.39,2632.71 373.62,191.28 2926.61,749.32 2783.74,1064.52 -142.88,315.19 -1984.6,444.91 -2874.14,-75.19 0,0 451.34,2857.04 1870.4,3047.22 1419.04,190.2 2048.35,-569.45 2923.2,-435.98 874.71,133.47 1449.03,510.72 965.55,642.3 -483.31,131.6 -1901.72,-361.72 -2732.93,67.22 -831.22,428.94 -1477.61,662.06 -249.84,1225.89 1227.76,563.83 3580.03,935.88 4273.06,51.7 30.34,-38.56 59.09,-75.32 86.78,-110.58 -47.09,75.42 -86.78,110.58 -86.78,110.58 205.67,193.98 408.69,938.36 538.34,1503.43 15.17,94.55 43.22,227.01 88.37,408.52l0 0.17c16.58,81.14 29.64,147.47 38.45,193.5 190.32,1242.66 -506.42,3150.31 -506.42,3150.31l258.24 137.76c1069.97,-1837.09 376.94,-3711.22 376.94,-3711.22 -394.76,-1450.47 -100.71,-2566.67 -100.71,-2566.67 0,0 2801.58,-812.62 2082.09,-2965.49 0,0 -656.88,-1371.89 -1579.39,-1899.68z"/>
  <path class="fil3" d="M8413.15 9769.59l-265.64 -58.52c244.12,-363.11 449.61,-563.12 449.61,-563.12l0 -0.03c961.14,-1116.65 1171.92,-2228.27 1171.92,-2228.27 0,0 -2135.89,-1900.98 -591.08,-3502.2 0,0 1160.11,-936.63 2199.04,-1014.34 0,0 -1128,2646.73 -622.48,2826.19 13.58,4.87 27.34,7.23 41.1,7.23 493,-0.3 1003.12,-3047.08 1003.12,-3047.08 0,0 1850.14,-436.23 3081.51,-436.23 293.69,0 552.45,24.84 742.24,86.31 0,0 -2185.63,2345.65 -1651.7,2395.15 5.65,0.52 11.47,0.77 17.47,0.77 566.56,-0.03 2904.42,-2286.46 2904.42,-2286.46 0,0 2738.61,92.28 2817.45,1744.56 78.85,1652.29 -775.05,2281.66 -1186.39,2293.27 -4.06,0.12 -8.29,0.18 -12.7,0.18 -172.68,-0.01 -643.29,-84.73 -1156.22,-169.49 -512.94,-84.72 -1068.21,-169.46 -1410.94,-169.46 -202.5,0 -330.73,29.55 -332.14,106.1 -6.35,323.9 1429.45,1151.87 2435.4,1151.78 47.27,-0.02 93.83,-1.86 139.17,-5.68 0,0 -1345.49,1959.82 -2598.03,1959.82 -115.18,0 -229.83,-16.64 -342.37,-52.91 -1335.79,-430.46 -1572.16,-1368.08 -2402.42,-1619.06 -325.44,-98.39 -625.83,-144.16 -848.43,-144.16 -345.19,0 -503.24,110.19 -276.93,304.99 372.18,320.43 1835.32,482.35 2389.71,1212.57 543.63,716.12 1009.83,1190.57 -221.37,1190.57 -24.34,0 -49.21,-0.19 -74.78,-0.57 -1324.16,-19.15 -3562.35,-682.43 -3802.42,-1757.13 -263.7,84.83 -757.24,657.58 -1110.37,1102.79l-0.53 0.74c-53.27,77.12 -134.06,182.41 -250.12,323.44l-0.35 0.3 -0.18 0.23c-48.15,63.99 -87.31,116.65 -114.47,153.68l-1.76 2.59 -0.88 1.1c-40.92,60.29 -80.08,123.88 -117.48,190.35zm1565.98 -1909.64c9.7,86.55 30.16,134.4 30.16,134.4 -10.58,-46.86 -20.46,-91.55 -30.16,-134.4z"/>
  <path class="fil4" d="M10014.58 4445.58l-3179.58 7496.06c-23.82,-9.71 -47.45,-19.05 -71.09,-28.23 -610.66,-238.83 -1274.94,-369.71 -1969.73,-369.71 -516.12,0 -1015.3,72.14 -1487.84,206.91 -231.43,66.14 -456.5,147.1 -674.16,242.18l-303.57 -593.02 -0.53 -0.53 0 -0.17 -0.18 -0.53 -3407.84 -6659.1c1777.12,-856.23 3769.6,-1336.04 5874.11,-1336.04 1844.85,0 3603.62,368.88 5206.64,1036.57l0.17 0c4.41,1.94 9,3.69 13.58,5.62z"/>
  <path class="fil5" d="M383.4 13818.4c-18.7,26.46 -37.39,53.1 -55.92,79.91 -596.01,869.42 -945.09,1921.4 -945.62,3054.88l0 2.64 -8139.96 0c0,-2663.12 768,-5146.85 2094.94,-7241.86l7046.56 4104.43z"/>
  <path class="fil6" d="M2632.18 11992.78c-20.64,9 -41.1,17.82 -61.2,27.17 -3.88,1.76 -7.76,3.53 -11.64,5.12 -874.53,397.05 -1624.54,1019.7 -2175.93,1793.34l-7046.56 -4104.43c1353.78,-2137.11 3288.94,-3869.46 5583.24,-4974.56l3407.84 6659.1 0.18 0.53 0 0.17 0.53 0.53 303.57 593.02z"/>
  <path class="fil7" d="M10206.32 16955.84l0 -2.64c-0.53,-1115.49 -338.67,-2152.3 -917.75,-3013.26 -15.52,-23.28 -31.57,-46.74 -47.45,-69.85l7043.74 -4102.92c1306.34,2083.62 2061.63,4548.14 2061.63,7188.67l-8140.17 0z"/>
  <path class="fil8" d="M16284.86 9767.16l-7043.74 4102.92c-591.43,-850.72 -1420.99,-1523.82 -2392.36,-1922.63 -4.41,-2.12 -9.17,-3.88 -13.76,-5.82l3179.58 -7496.06c2599.97,1086.06 4789.14,2959.17 6270.27,5321.58z"/>
  <path class="fil9" d="M6848.76 11947.45c-4.41,-2.12 -9.17,-3.88 -13.76,-5.82 -23.82,-9.71 -47.45,-19.05 -71.09,-28.23 -610.66,-238.83 -1274.94,-369.71 -1969.73,-369.71 -516.12,0 -1015.3,72.14 -1487.84,206.91 -231.43,66.14 -456.5,147.1 -674.16,242.18 -20.64,9 -41.1,17.82 -61.2,27.17l-2400.66 -4837.68c1401.94,-664.88 2969.33,-1036.57 4623.86,-1036.57 1470.2,0 2871.61,293.64 4149.2,825.31l-2094.62 4976.45z"/>
  <path class="fil10" d="M327.48 13898.31c-596.01,869.42 -945.09,1921.4 -945.62,3054.88l-5395.03 0c0,-2123.9 664.81,-4186.24 1722.97,-5856.93l4617.68 2802.05z"/>
  <path class="fil11" d="M2570.98 12019.94c-3.88,1.76 -7.76,3.53 -11.64,5.12 -874.53,397.05 -1624.54,1019.7 -2175.93,1793.34 -18.7,26.46 -37.39,53.1 -55.92,79.91l-4617.68 -2802.05c1076.85,-1666.84 2660.47,-3046.74 4460.52,-3914l2400.66 4837.68z"/>
  <path class="fil12" d="M15538.2 16953.19l-5341.06 0c-0.53,-1127.83 -335.32,-2176.29 -908.58,-3046.77l4622.09 -2750.06c1031.17,1680.26 1627.54,3667.28 1627.54,5796.83z"/>
  <path class="fil13" d="M9288.56 13939.94c-15.52,-23.28 -31.57,-46.74 -47.45,-69.85 -591.43,-850.72 -1420.99,-1523.82 -2392.36,-1922.63l2094.62 -4976.45c2047.17,855.15 3789.01,2328.05 4968.88,4178.23 15.34,23.56 -4623.68,2790.7 -4623.68,2790.7z"/>
  <path class="fil14" d="M8306.08 16955.84l-7023.8 0c0,-820.91 281.69,-1576.39 754.06,-2174.34 317.32,-402.34 720.9,-733.25 1182.86,-965.55 91.55,-45.86 185.57,-88.2 281.34,-126.12 219.43,-86.96 449.44,-152.4 687.74,-193.85 196.67,-34.22 399.16,-52.03 605.9,-52.03 426.33,0 835.02,76.02 1213.2,215.38 28.76,10.23 56.97,21.34 85.38,32.63 597.61,237.95 1114.43,635.17 1497.89,1139.47 448.91,589.67 715.43,1326.1 715.43,2124.43z"/>
  <path class="fil5" d="M7125.34 16955.84l-4662.31 0c0,-605.36 230.89,-1156.76 609.07,-1571.09 161.93,-177.45 350.49,-329.5 559.68,-449.97 129.47,-74.79 267.06,-137.41 410.64,-186.26 225.25,-76.73 466.02,-119.77 716.14,-123.48 11.99,-0.35 23.64,-0.35 35.63,-0.35 259.64,0 509.23,42.33 742.59,120.83 31.93,10.76 63.5,22.05 94.55,34.04 361.25,139 678.75,365.12 927.45,652.82 352.95,408.69 566.56,941.03 566.56,1523.47z"/>
  <path class="fil15" d="M19402.35 23437.42c0,0 104.6,1123.42 -22.93,1186.22l-1632.65 -3.35c0,0 0,-188.56 262.29,-230.36 262.11,-41.81 722.84,-195.44 800.81,-537.28 77.96,-342.02 592.49,-415.22 592.49,-415.22z"/>
  <path class="fil15" d="M19613.31 20539.53c-59.97,1636.18 -180.8,3184.17 -180.8,3184.17 0,0 -77.44,82.9 -322.44,152.04 -176.56,49.75 -300.21,-23.1 -300.21,-23.1 0,0 -113.95,-915.99 -149.4,-1132.77 -37.4,-229.84 -1579.91,-4834.64 -1380.24,-6532.56 140.23,-1191.86 789.16,-1969.39 789.16,-1969.39l1273.35 0c0,0 1.77,881.07 109.72,2064.11 30.69,335.32 69.67,694.97 119.94,1065.57 96.49,714.9 85.38,1977.67 40.92,3191.93z"/>
  <path class="fil16" d="M19613.31 20539.53c-282.75,-712.43 -1067.33,-2698.75 -1158.88,-3042 -112,-419.81 -381,-665.69 -381,-665.69l1379.01 -549.8c30.69,335.32 69.67,694.97 119.94,1065.57 96.49,714.9 85.38,1977.67 40.92,3191.93z"/>
  <path class="fil17" d="M19104.25 8079c-342.9,-85.55 -563.56,72.24 -563.56,72.24 -959.91,112.98 -972.61,1266.79 -870.65,1638.44 101.95,371.63 240.76,763.83 -60.15,1349.99 -869.24,1693.07 1668.11,1153.67 1668.11,1153.67 -246.59,-1128.38 1197.68,-1039.64 1165.75,-911.75 1824.92,2.82 -559.68,-3108.05 -1339.5,-3302.6z"/>
  <path class="fil15" d="M17138.22 15641.74c0,0 162.81,371.48 168.81,474.14 6.18,102.66 -42.51,265.82 -76.56,281.7 -34.21,15.88 -52.74,-195.27 -68.08,-183.8 -15.35,11.47 40.22,346.96 -16.22,381.89 -56.27,35.1 -268.47,-280.64 -299.33,-428.81 -30.69,-148.34 0.53,-391.23 0.53,-391.23l290.86 -133.88z"/>
  <path class="fil15" d="M18790.98 12345.56c0,0 -239.18,266.88 -453.5,710.14 -88.02,181.85 -171.63,393.52 -233.01,628.65 -148.34,570.44 -730.6,1674.99 -929.56,2043.99 -42.15,78.14 -67.21,123.3 -67.21,123.3l-264.23 -50.27c0,0 163.87,-1483.26 277.81,-1905.89 119.24,-441.5 155.75,-1815.57 339.2,-2266.6 237.42,-583.93 739.59,-660.26 739.59,-660.26l590.9 1376.93z"/>
  <path class="fil16" d="M18337.49 13055.7c-88.02,181.85 -171.63,393.52 -233.01,628.65 -148.34,570.44 -424.21,1362.07 -929.56,2043.99 0,0 83.08,-914.4 253.47,-1194.86 170.57,-280.46 191.38,-2052.1 191.38,-2052.1l717.72 574.32z"/>
  <path class="fil15" d="M21861.92 23324.71c0,0 290.51,265.29 233.72,453.67 -56.62,188.38 -318.91,313.97 -354.37,544.33 -35.28,230.37 -177.1,355.96 -304.62,355.96 -127.53,0 -608.18,0 -608.18,0 0,0 -94.02,-162.1 132.82,-210.96 226.83,-48.86 312.38,-319.44 298.1,-570.62 -14.11,-251.35 21.34,-586.31 21.34,-586.31l481.9 -111.65 99.31 125.59z"/>
  <path class="fil15" d="M20063.46 14174.36c0,0 1025.52,462.84 1261.71,1700.21 257.53,1348.14 -371.65,2853.09 -229.13,3487.92 142.7,634.82 666.58,1856.49 666.58,3836.64 0,0 -54.51,113.59 -222.6,174.09 -53.8,19.23 -202.14,71.79 -271.99,87.84 0,0 -65.79,-251.53 -156.81,-443.44 -410.99,-866.07 -1593.85,-2767.19 -1651.71,-3244.67 -40.92,-337.96 -397.23,-2574.22 -1174.22,-3886.55 -186.62,-315.03 114.48,-1567.92 114.48,-1567.92l1663.7 -144.11z"/>
  <path class="fil15" d="M20565.81 15377.86c-336.02,-753.53 -541.51,-969.78 -502.35,-1203.5 29.28,-174.1 -88.9,-3245.22 -88.9,-3245.22 -39.86,-12.35 -119.77,-23.41 -163.51,-33.13 -137.76,-30.6 -229.83,-137.43 -299.33,-260.33 -88.37,-156.67 -182.92,-468.08 -181.85,-764.42l-324.56 17.23 -460.38 150.09c0,0 115.01,283.67 115.54,498.2 0,1.78 0,3.56 0,5.34 0.88,186.32 -121.36,350.74 -300.21,402.43 -91.55,26.39 -170.93,48.93 -170.93,48.93 0,0 -265.81,758.52 -316.61,1537.99 -50.62,779.29 483.31,1117.78 -3.88,2675.11 -497.42,1590.68 2882.55,587.55 2696.98,171.28z"/>
  <path class="fil18" d="M18560.8 10099.48c0,0 99.14,222.78 99.66,437.31 406.05,-60.24 583.32,-386.19 670.99,-590.92l-770.65 153.61z"/>
  <path class="fil15" d="M20435.28 12287.7c0,0 161.58,1553.99 289.81,1950.86 167.04,516.82 0,790.39 0,790.39l-1624.19 400.58 -1425.93 -202.5c0,0 -75.31,-324.91 -40.39,-589.84 35.46,-270.59 181.15,-485.6 184.15,-893.06 5.65,-757.24 -390.18,-871.01 -256.65,-1505.83 144.63,-687.04 627.06,-1244.86 627.06,-1244.86 0,0 775.58,759.44 1785.41,-64.39l460.72 1358.64z"/>
  <path class="fil15" d="M18569.8 10416.43c0,0 935.57,-206.82 797.81,-787.47 -137.76,-580.65 -109.89,-998.41 -712.96,-890.92 -603.25,107.51 -666.22,356.51 -667.46,561.51 -1.06,205 335.67,1155.72 582.61,1116.88z"/>
  <path class="fil17" d="M18226.72 8825.03c0,0 417.69,620.2 833.26,627.52 415.57,7.34 560.38,-138.07 560.38,-138.07 0,0 -357.18,-167.01 -518.93,-568.66 0,0 -759.53,-290.82 -874.72,79.22z"/>
  <path class="fil17" d="M18303.27 8865.23c0,0 -172.34,115.85 -217.31,272.42 -44.1,153.1 -66.32,347.31 1.06,562.96 0,0 -302.67,-417.05 -149.04,-730.42 162.81,-332.3 365.3,-104.95 365.3,-104.95z"/>
  <path class="fil19" d="M21387.08 16672.02c0,0 -792.87,-192.44 -1641.12,-73.56 -335.14,46.74 -678.92,142.17 -985.84,317.15 0,0 -914.22,-184.33 -1489.07,-107.78 0,0 -190.5,-760.77 326.5,-1845.91 0,0 1108.42,80.25 2534.17,-122.95 216.26,-30.69 439.74,-68.09 667.63,-113.24 0,0 739.95,781.05 587.73,1946.28z"/>
  <path class="fil19" d="M20602.32 13618.56c-158.75,41.81 -309.56,78.85 -452.61,112.01 -1932.69,446.44 -2470.85,142.69 -2470.85,142.69 0,0 -147.64,-830.43 -59.1,-1361.9 88.55,-531.46 580.32,-1542.77 580.32,-1542.77l189.79 -33.82c0,0 -138.47,582.1 -162.98,779.3 -36.34,290.34 266.17,369.53 673.62,296.34 647.88,-116.41 808.04,-1151.56 808.04,-1151.56 153.99,-6.39 279.23,47.77 279.23,47.77 -93.66,576.74 10.76,1102.9 153.45,1506.66l0.18 0.7c174.27,491.95 405.34,802.57 405.34,802.57l55.56 401.99z"/>
  <path class="fil20" d="M21387.08 16672.02c0,0 -792.87,-192.44 -1641.12,-73.56 685.62,-738.72 385.76,-1759.48 385.76,-1759.48 216.26,-30.69 439.74,-68.09 667.63,-113.24 0,0 739.95,781.05 587.73,1946.28z"/>
  <path class="fil18" d="M18640.35 14361.69c0,38.1 -21.34,68.79 -47.62,68.79 -26.46,0 -47.81,-30.69 -47.81,-68.79 0,-38.1 21.35,-68.97 47.81,-68.97 26.28,0 47.62,30.87 47.62,68.97z"/>
  <path class="fil15" d="M19987.78 10906.66c0,0 428.8,113.65 585.44,379.32 156.63,265.82 1065.74,1653.47 1189.39,2347.38 123.65,693.91 -732.54,2376.84 -732.54,2376.84l-230.72 -158.58c0,0 101.78,-1931.81 0,-2129.72 -118.71,-231.25 -252.59,-505.35 -252.59,-505.35 0,0 -514.18,-1175.63 -527.05,-1233.31 -140.93,-632.36 -31.92,-1076.59 -31.92,-1076.59z"/>
  <path class="fil15" d="M20805.52 15728.34c0,0 -150.28,43.04 -232.3,92.43 -82.03,49.22 -271.47,243.59 -227.19,277.99 44.28,34.4 164.04,-88.55 227.19,-88.55 63.14,0 -291.22,329.67 -261.76,398.64 29.63,68.79 435.86,34.4 569.92,-78.85 133.88,-113.07 212.55,-509.24 212.55,-509.24l-288.4 -92.43z"/>
  <path class="fil20" d="M20602.32 13618.56c-158.75,41.81 -309.56,78.85 -452.61,112.01 -219.07,-416.99 18.17,-1237.9 -8.29,-1316.57 174.27,491.95 405.34,802.57 405.34,802.57l55.56 401.99z"/>
  <polygon class="fil21" points="14333.46,24619.58 24607.94,24619.58 24607.94,24992.82 14333.46,24992.82 "/>
  <polygon class="fil22" points="14723.28,24992.82 15048.2,24992.82 15048.2,25230.42 14723.28,25230.42 "/>
  <polygon class="fil22" points="23551.55,24992.82 23876.44,24992.82 23876.44,25230.42 23551.55,25230.42 "/>
  <path class="fil22" d="M16865.53 19024.34l-2866.32 0c-62.8,0 -119.42,-37.39 -143.76,-95.25l-261.23 -615.07c-28.93,-68.08 21.17,-143.76 95.08,-143.76l2921.88 0 320.32 754.41c19.93,47.28 -14.64,99.66 -65.97,99.66z"/>
  <path class="fil21" d="M16890.75 19024.34l-2717.44 0c-84.67,0 -161.22,-50.62 -194.38,-128.58l-270.93 -638.35c-17.64,-41.27 12.7,-87.14 57.68,-87.14l2847.44 0c82.38,0 156.64,49.22 188.92,124.88l223.13 525.99c40.92,96.31 -29.81,203.2 -134.41,203.2z"/>
  <polygon class="fil23" points="16808.38,18752.18 14114.22,18752.18 13907.48,18265 16601.82,18265 "/>
  <polygon class="fil21" points="15219.12,18875.48 15484.94,18875.48 15484.94,24678.67 15219.12,24678.67 "/>
  <path class="fil24" d="M-8873.32 10777.16c0,0 -373.56,-646.67 -1182.24,-205.56 -572.51,312.28 -451.82,837.16 -604.51,1035.42 -152.68,198.08 -1004.75,285.75 -759.69,1315.15 149.37,627.42 2121.24,1511.48 2004.73,2041.53 0,0 976.86,-1187.98 198.19,-1726.15 -352.91,-243.94 -554.92,-714.02 -528.5,-814.39 26.44,-100.19 872.01,-1646.01 872.01,-1646.01z"/>
  <path class="fil15" d="M-9585.42 13885.44c0,0 540.39,2235.72 1070.86,2682.52 167.82,141.46 497.5,425.62 772.21,614.18 247.19,169.69 329.53,195.79 329.53,195.79l-229.2 218.19c0,0 -46.27,-88.9 -195.74,-144.46 -395.88,-147.28 -1199.9,-394.4 -1413.61,-645.58 -294.39,-346.25 -1100.42,-2080.69 -1100.42,-2080.69l766.38 -839.96z"/>
  <path class="fil25" d="M-3423.25 22853.04c0,0 -207.78,458.97 -966.26,817.92l-0.53 0.18c-318.73,150.46 -734.66,283.81 -1273.17,357.54 -1659.6,790.93 -2518.09,246.6 -2518.09,246.6 -2209.18,-887.94 -3121.45,-3865.92 -1518.78,-5080.71 468.7,-355.24 940.3,-461.61 1353.15,-452.61 723.02,16.23 1430.07,-195.27 2025.26,-605.37 340.26,-234.07 792.87,-404.11 1379.54,-364.24 272.69,18.34 524.41,89.6 752.48,203.91l26.81 13.4c1428.93,742.42 1907.11,3184.7 739.6,4863.39z"/>
  <path class="fil8" d="M-3423.25 22853.04c0,0 -207.78,458.97 -966.26,817.92l-0.53 0.18c-896.05,351.72 -602.72,-134.94 -1600.38,163.33 -998.05,298.45 -1688.5,147.11 -2765,-1194.68 -1076.5,-1341.97 -1005.63,-2932.82 -72.48,-3393.01 933.15,-460.03 1661.18,167.92 2663.03,-1010.18 692.33,-814.04 1975.2,-260.35 1975.2,-260.35l26.81 13.4c1428.93,742.42 1907.11,3184.7 739.6,4863.39z"/>
  <path class="fil26" d="M-5931.5 16160.68c606.07,474.84 986.19,964.85 986.19,964.85 0,0 -1055.87,275.34 -1453.45,5.82 -469.3,-318.03 -641.35,-298.8 -1086.64,-310.44 0,0 948.06,-1135.06 1553.9,-660.22z"/>
  <path class="fil27" d="M-7231.7 18881.47l0 0c-387.91,-446.26 -453.03,-1124.3 -439.35,-1614.49 10.92,-390 92.06,-936.45 134.18,-1197.33 8.89,-55.21 80.27,-71.26 112.22,-25.4l84.63 121.18c84.79,121.53 112.59,273.76 75.44,417.16 -114.19,440.79 -306.88,1448.68 112.08,2105.9 47.11,73.91 -10.12,273.06 -79.2,192.97z"/>
  <path class="fil28" d="M-5089.42 18270.99c0,0 782.11,1.59 962.73,538.52 180.8,536.93 -354.19,642.05 -702.03,444.33 -347.84,-197.91 -689.68,-875.07 -260.7,-982.84z"/>
  <path class="fil14" d="M-14664.25 17813.08c4.74,8.47 9.81,17.46 14.87,26.28 118.24,205.5 389.52,709.09 688.31,1260.3 141.34,261.41 289.3,533.57 429.68,789.69 241.88,442.03 461.93,835.73 590.31,1043.69 130.58,211.67 226.69,360.18 265.59,419.63l0.31 0.35c11.69,18.35 14.24,39.86 12.65,61.38 -13.6,186.44 -9.79,371.83 8.53,554.22 180.22,1792.99 1389.28,2753.96 1389.28,2753.96l359.5 53.1c0,0 -508.73,-1884.72 -658.6,-2950.28 -25.29,-180.62 -36.35,-327.02 -27.5,-422.45 26.56,-277.63 -22.77,-685.1 -116.03,-1153.06 -166,-831.49 -470.48,-1852.26 -735.12,-2669.12 -16.75,-52.21 -522.32,-1881.01 -522.32,-1881.01 -424.31,370.94 -1971.99,523.88 -1971.99,523.88 0,0 -262.43,638 272.54,1589.44z"/>
  <path class="fil27" d="M-10150.72 25230.42l-1500.38 0c0,0 -35.97,-228.6 42.4,-401.99 75.1,-166.51 182.14,-171.81 13.67,-432.86 95.34,98.25 401.81,138.82 618.72,109.72 26.58,43.04 171.36,332.14 260.12,395.82 98.06,70.56 535.27,45.33 565.47,329.32z"/>
  <path class="fil29" d="M-14664.25 17813.08c4.74,8.47 9.81,17.46 14.87,26.28 118.24,205.5 757.76,1386.77 1056.55,1937.81 -346.22,-1424.34 -105.42,-2848.86 -105.42,-2848.86l-965.99 884.76z"/>
  <path class="fil24" d="M-9077.94 10686.14c9.81,-39.42 -856.95,391.72 -900.89,440.48 -406.51,450.94 -290.59,1039.37 -58,1045.01 149.19,3.53 120.26,251.53 120.26,251.53l1661.86 -702.91c0,0 -200.09,-1166.86 -823.24,-1034.11z"/>
  <path class="fil4" d="M-9636.41 13549.76c0,0 252.91,505.18 221.33,915.1 0,0 -304.94,481.37 -1095.82,603.25 0,0 679.96,-1518.71 874.48,-1518.35z"/>
  <path class="fil14" d="M-13494.6 16335.3l5.08 -280.46c-559.1,70.38 -1927.77,-668.16 -1927.77,-668.16 0,0 -584.92,388.93 -664.99,1500.01 -39.09,542.22 -286.33,2835.63 -313.67,3520.37 -9.98,248.18 -13.28,425.45 -14.41,496.18l0.07 0.71c-0.33,21.52 -10.47,40.57 -23.77,57.68 -115.68,147.11 -216.04,302.86 -302.95,464.43 -853.14,1587.32 -407,3744.21 -407,3744.21l198.12 -50.44c0,0 721.38,-2235.91 1192.85,-3203.05 80.01,-164.04 152.7,-291.57 213.52,-365.48 177.27,-215.37 364.19,-581.02 548.44,-1020.94 348.28,-832.02 1496.48,-4195.05 1496.48,-4195.05z"/>
  <path class="fil27" d="M-15950.89 25230.42l-1500.36 0c0,0 -35.97,-228.6 42.4,-401.99 75.09,-166.51 192.71,-242.18 164.56,-443.62 95.34,98.08 250.72,208.14 467.62,178.86 26.58,43.04 171.56,273.76 260.33,337.43 98.06,70.56 535.27,45.33 565.45,329.32z"/>
  <path class="fil4" d="M-10612.19 15390.38c-201.52,34.39 32.91,194.56 -244.28,224.72 -394.51,43.03 -801.84,72.5 -1015.22,157.52 -77.81,31.04 -129.88,69.49 -146.12,118.53 -92.49,277.99 -678.26,756 -678.26,756 -2612.57,-118.88 -2780.84,-1283.4 -2780.84,-1283.4 1695.59,-1646.77 3138.1,-2544.41 4330.28,-2655.54 290.16,-26.99 681.25,9.35 864.75,91.01 416.97,185.56 645.48,750.53 645.48,750.53 0,0 -210.02,1709.92 -975.78,1840.62z"/>
  <path class="fil20" d="M-10856.48 15615.1c-394.51,43.03 -801.84,72.5 -1015.22,157.52 -87.19,-1302.99 527.7,-2283.01 527.7,-2283.01 0,0 401.11,1632.31 487.52,2125.49z"/>
  <path class="fil15" d="M-10516.1 13269.13c0,0 -992.11,-54.33 -1168.42,568.68 -176.28,622.82 330.75,3109.03 440.02,3365.67 198.91,467.25 1142.24,1861.78 1142.24,1861.78l342.68 -104.07c0,0 -607.18,-2102.56 -751.33,-2304.17 -226.32,-316.44 291.77,-3116.96 -5.2,-3387.9z"/>
  <path class="fil15" d="M-9899.34 18548.45c0,0 113.63,334.78 154.19,455.61 21.32,63.68 86.2,103.02 109.22,131.06 66.75,81.49 260.93,278.87 264.32,394.4 0,0 -9.79,51.15 -51.44,41.81 -34.11,-7.58 -137.35,-105.13 -214.36,-134.41 -23.93,-9.17 -50.16,5.12 -55.3,30.17 -10.64,52.21 -23.35,149.4 4.73,235.12 23.69,72.32 78.93,414.69 17.95,416.63 -202.58,5.82 -316.1,-294.04 -382.16,-457.2 -37.36,-92.25 -37.89,-294.04 -29.06,-473.07 8.86,-179.57 -231.33,-514.71 -231.33,-514.71l413.24 -125.41z"/>
  <path class="fil4" d="M-11880.16 14670.72c2.6,14.64 938.86,172.33 1524.44,-125.06 0,0 489.23,-1532.46 -209.88,-1459.26 -699.12,73.38 -1113.1,293.51 -1130.71,628.3 -17.62,334.78 -183.85,956.02 -183.85,956.02z"/>
  <path class="fil15" d="M-10304.18 12906.65c74.54,233.71 323.18,899.23 667.77,643.11 -11.69,-49.56 60.69,-194.2 146.07,-340.78 109.09,-187.5 239.02,-379.24 239.02,-379.24l-561.52 -491.95 -33.53 -29.28c-146.83,256.3 -291.24,379.76 -417.7,474.14 -38.44,28.75 -54.7,78.31 -40.11,124z"/>
  <path class="fil30" d="M-9251.37 12830.1c0,0 -129.81,191.2 -238.92,378.88 -349.02,-215.19 -349.4,-647.34 -322.5,-871.18l561.42 492.31z"/>
  <path class="fil15" d="M-9235.8 13076.52c0,0 -847.44,-471.49 -545.66,-994.83 301.78,-523.17 395.64,-936.4 949.47,-657.4 553.84,278.87 542.89,538.69 484.62,737.83 -58.24,199.14 -660.22,1023.59 -888.43,914.4z"/>
  <path class="fil24" d="M-8204.2 11856.96c-38.82,-232.31 -156.83,-254.53 -239.11,-239 -312.97,-517.58 -824.26,-315.56 -824.26,-315.56 -273.09,342.72 -667.93,401.11 -667.93,401.11 0,0 98.35,183.09 503.52,296.33 123.77,34.58 264.24,13.59 399.72,-31.92 -281.11,156.64 -575.08,216.78 -575.08,216.78 533.94,48.86 1041.98,-439.39 1094.66,-491.59 24.65,75.67 67.84,234.07 41.99,349.78 -35.16,157.34 -28.72,294.92 -89.56,479.25 0,0 414.26,-316.8 356.06,-665.17z"/>
  <path class="fil15" d="M-7384.22 17250.05c0,0 -13.83,-7.94 -46.8,49.56 -27,46.92 -41.18,43.04 -116.73,88.55 -141.6,85.19 -47.05,187.67 83.53,239 93.41,36.87 150.66,-22.4 160.11,-59.44 16.58,-64.73 36.7,-202.15 -80.12,-317.68z"/>
  <path class="fil15" d="M-7816.92 17318.84c0,0 123.54,92.42 235.06,-72.5 23.62,-34.93 120.14,-58.39 135.34,-69.5 49.71,-36.51 66.53,-62.79 57.2,-82.55 -4.43,-9.35 -16.16,-13.23 -26.95,-9.17 -33.11,12.34 -123.99,41.09 -251.39,39.69 -25.28,-0.36 -96.17,37.39 -105.68,46.56 -30.73,29.28 -89.59,128.76 -43.58,147.47z"/>
  <path class="fil6" d="M754.35 22696.94c585.25,0 938.21,-206.55 938.21,-671.34 0,-404.46 -301.27,-654.05 -981.25,-654.05l-1532.12 0 0 1325.39 1575.16 0zm-352.95 -2427.11c585.43,0 955.5,-189.44 955.5,-654.23 0,-395.82 -309.91,-619.65 -869.42,-619.65l-1308.28 0 0 1273.88 1222.2 0zm-2513.19 -2435.93l2797.35 0c688.45,0 1230.84,189.44 1574.98,533.75 275.52,275.35 413.28,611.01 413.28,1041.4 0,679.98 -361.59,1058.68 -791.99,1299.81 697.27,266.7 1127.66,671.33 1127.66,1497.54 0,1101.73 -895.18,1652.59 -2255.13,1652.59l-2866.15 0 0 -6025.09z"/>
  <polygon class="fil6" points="4102.2,17833.9 5531.13,17833.9 7114.75,20381.66 8698.54,17833.9 10127.3,17833.9 10127.3,23858.99 8810.38,23858.99 8810.38,19925.52 7114.75,22499.03 7080.36,22499.03 5402.02,19951.27 5402.02,23858.99 4102.2,23858.99 "/>
  <polygon class="fil6" points="11633.3,17833.9 12958.86,17833.9 12958.86,23858.99 11633.3,23858.99 "/>
  <path class="fil22" d="M30234.22 25354.77l-52412.1 0c-30.92,0 -56.22,-25.22 -56.22,-56.27l0 -11.82c0,-30.87 25.29,-56.26 56.22,-56.26l52412.1 0c30.87,0 56.09,25.4 56.09,56.26l0 11.82c0,31.05 -25.22,56.27 -56.09,56.27z"/>
  <polygon class="fil31" points="-4525.14,14811 -4615.09,14811 -4791.41,14504.54 -4791.41,14811 -4875.37,14811 -4875.37,14379.2 -4781.22,14379.2 -4609.09,14680.86 -4609.09,14379.2 -4525.14,14379.2 "/>
  <polygon id="_1" class="fil31" points="-4448.27,14379.2 -4358.31,14379.2 -4358.31,14811 -4448.27,14811 "/>
  <polygon id="_2" class="fil31" points="-3973.99,14622.69 -4183.3,14622.69 -4183.3,14733.64 -3944.6,14733.64 -3944.6,14811 -4271.46,14811 -4271.46,14379.2 -3955.4,14379.2 -3955.4,14455.96 -4183.3,14455.96 -4183.3,14547.72 -3973.99,14547.72 "/>
  <path id="_3" class="fil31" d="M-3688.52 14811l-185.91 0 0 -431.8 185.91 0c26.99,0.6 49.18,3.6 67.17,9.59 29.98,9.6 54.57,28.19 73.16,54.57 15,21.59 25.19,44.98 30.59,69.57 6,25.18 8.4,49.17 8.4,71.96 0,56.98 -11.4,105.55 -34.78,145.74 -31.19,53.38 -79.17,80.36 -144.53,80.36zm67.17 -321.45c-13.8,-23.39 -41.38,-35.38 -82.16,-35.38l-83.36 0 0 281.87 83.36 0c42.58,0 71.96,-20.99 88.75,-62.97 9.6,-22.79 13.8,-50.38 13.8,-82.16 0,-43.78 -6.59,-77.96 -20.39,-101.35z"/>
  <path id="_4" class="fil31" d="M-3250.02 14822.99c-61.77,0 -109.15,-16.79 -141.53,-50.38 -43.78,-41.38 -65.97,-100.75 -65.97,-178.12 0,-79.16 22.19,-138.53 65.97,-178.11 32.39,-33.59 79.76,-50.38 141.53,-50.38 61.17,0 108.55,16.79 140.93,50.38 43.78,39.58 65.37,98.95 65.37,178.11 0,77.36 -21.59,136.74 -65.37,178.12 -32.39,33.58 -79.76,50.38 -140.93,50.38zm85.16 -115.74c20.39,-26.39 31.18,-64.17 31.18,-112.75 0,-48.58 -10.8,-85.76 -31.78,-112.15 -20.99,-26.39 -49.17,-39.58 -84.56,-39.58 -35.99,0 -64.77,13.19 -85.76,39.58 -21.59,26.39 -31.78,63.57 -31.78,112.15 0,48.58 10.19,86.36 31.78,112.75 20.99,26.39 49.77,39.58 85.76,39.58 35.39,0 63.57,-13.19 85.16,-39.58z"/>
  <polygon id="_5" class="fil31" points="-2555.05,14379.2 -2463.3,14379.2 -2584.44,14811 -2670.8,14811 -2722.98,14558.52 -2737.96,14475.15 -2753.56,14558.52 -2805.74,14811 -2889.1,14811 -3011.44,14379.2 -2916.08,14379.2 -2858.51,14626.28 -2846.52,14695.26 -2833.92,14628.08 -2785.35,14379.2 -2689.99,14379.2 -2639.02,14626.28 -2625.82,14695.26 -2612.62,14629.28 "/>
  <path id="_6" class="fil31" d="M-2188.53 14722.24l-159.52 0 -29.39 88.76 -94.76 0 154.12 -431.8 101.95 0 152.93 431.8 -97.75 0 -27.59 -88.76zm-25.19 -74.36l-53.97 -169.72 -55.77 169.72 109.74 0z"/>
  <path id="_7" class="fil31" d="M-1743.43 14800.2c-23.99,15 -53.38,22.19 -88.16,22.19 -56.97,0 -103.75,-19.79 -140.34,-59.38 -38.38,-39.58 -56.97,-94.16 -56.97,-163.72 0,-69.57 19.19,-125.94 57.57,-167.92 38.38,-41.98 89.36,-62.97 152.33,-62.97 55.18,0 98.95,13.8 132.54,41.38 32.98,28.19 52.18,62.98 56.97,104.35l-88.75 0c-6.6,-29.39 -23.39,-50.38 -49.78,-61.77 -14.99,-6.59 -31.78,-9.59 -49.77,-9.59 -34.78,0 -63.57,13.19 -85.76,38.99 -22.19,26.38 -33.59,65.97 -33.59,118.74 0,52.78 11.99,90.56 36.59,112.74 23.99,22.19 51.57,32.99 82.76,32.99 29.98,0 54.57,-8.4 74.36,-26.38 19.19,-17.4 31.19,-40.19 35.39,-68.37l-99.56 0 0 -71.97 179.32 0 0 231.49 -59.37 0 -9 -53.97c-17.39,20.39 -32.98,34.78 -46.78,43.18z"/>
  <path id="_8" class="fil31" d="M-1288.94 14722.24l-159.53 0 -29.39 88.76 -94.76 0 154.12 -431.8 101.96 0 152.92 431.8 -97.75 0 -27.59 -88.76zm-25.19 -74.36l-53.97 -169.72 -55.77 169.72 109.74 0z"/>
  <polygon class="fil31" points="-1576.32,10945.06 -1666.28,10945.06 -1842.6,10638.6 -1842.6,10945.06 -1926.56,10945.06 -1926.56,10513.26 -1832.4,10513.26 -1660.28,10814.92 -1660.28,10513.26 -1576.32,10513.26 "/>
  <path id="_1_0" class="fil31" d="M-1300.94 10957.05c-61.77,0 -109.15,-16.79 -141.54,-50.38 -43.78,-41.38 -65.97,-100.75 -65.97,-178.12 0,-79.16 22.19,-138.53 65.97,-178.11 32.39,-33.59 79.77,-50.38 141.54,-50.38 61.17,0 108.55,16.79 140.93,50.38 43.78,39.58 65.37,98.95 65.37,178.11 0,77.36 -21.59,136.74 -65.37,178.12 -32.39,33.58 -79.77,50.38 -140.93,50.38zm85.16 -115.74c20.39,-26.39 31.18,-64.17 31.18,-112.75 0,-48.58 -10.8,-85.76 -31.78,-112.15 -20.99,-26.39 -49.18,-39.58 -84.56,-39.58 -35.99,0 -64.77,13.19 -85.76,39.58 -21.59,26.39 -31.78,63.57 -31.78,112.15 0,48.58 10.19,86.36 31.78,112.75 20.99,26.39 49.77,39.58 85.76,39.58 35.38,0 63.57,-13.19 85.16,-39.58z"/>
  <path id="_2_1" class="fil31" d="M-842.26 10775.94l-92.96 0 0 169.12 -88.15 0 0 -431.8 211.7 0c29.98,0.6 53.38,4.2 69.57,11.39 16.19,6.6 29.98,16.8 41.38,29.99 9.6,10.8 16.8,23.39 22.19,36.59 5.4,13.19 8.4,28.18 8.4,44.98 0,20.99 -5.4,40.78 -15.59,60.57 -10.2,19.79 -27.59,34.18 -50.98,41.98 19.79,8.4 33.59,19.79 41.98,34.18 8.4,15 12.6,37.18 12.6,67.77l0 28.78c0,19.79 0.6,32.99 2.4,40.18 2.4,10.8 7.8,19.19 16.19,24.59l0 10.8 -98.95 0c-3,-9.6 -4.8,-17.39 -5.99,-23.39 -2.4,-12 -3.6,-23.99 -3.6,-37.18l-0.6 -39.59c-0.6,-27.58 -5.4,-46.17 -15.59,-55.17 -9.6,-9.6 -27.59,-13.8 -53.98,-13.8zm54.57 -78.57c17.99,-8.39 26.99,-24.59 26.99,-48.57 0,-26.39 -8.4,-43.78 -25.79,-52.77 -10.2,-4.8 -24.59,-7.8 -44.38,-7.8l-104.36 0 0 116.34 101.95 0c20.39,0 35.38,-2.4 45.58,-7.2z"/>
  <path id="_3_2" class="fil31" d="M-509.91 10945.06l-83.96 0 0 -431.8 130.74 0 78.56 339.44 77.97 -339.44 130.14 0 0 431.8 -84.56 0 0 -292.07c0,-8.39 0.6,-19.79 0.6,-35.38 0,-15 0,-26.39 0,-34.78l-81.56 362.23 -87.56 0 -80.97 -362.23c0,8.4 0,19.79 0,34.78 0.6,15.59 0.6,26.99 0.6,35.38l0 292.07z"/>
  <path id="_4_3" class="fil31" d="M159.97 10856.3l-159.53 0 -29.39 88.76 -94.75 0 154.12 -431.8 101.95 0 152.92 431.8 -97.75 0 -27.59 -88.76zm-25.19 -74.36l-53.97 -169.72 -55.77 169.72 109.74 0z"/>
  <polygon class="fil31" points="3441.27,9365.05 3351.32,9365.05 3175,9058.6 3175,9365.05 3091.04,9365.05 3091.04,8933.25 3185.19,8933.25 3357.31,9234.91 3357.31,8933.25 3441.27,8933.25 "/>
  <path id="_1_4" class="fil31" d="M3778.42 9276.29l-159.53 0 -29.38 88.76 -94.76 0 154.12 -431.8 101.95 0 152.93 431.8 -97.75 0 -27.59 -88.76zm-25.19 -74.37l-53.97 -169.72 -55.78 169.72 109.74 0z"/>
  <path id="_2_5" class="fil31" d="M4144.34 9365.05l-185.91 0 0 -431.8 185.91 0c26.99,0.6 49.18,3.6 67.17,9.59 29.99,9.6 54.58,28.19 73.17,54.58 14.99,21.59 25.19,44.98 30.59,69.57 6,25.18 8.4,49.18 8.4,71.97 0,56.98 -11.39,105.55 -34.78,145.74 -31.19,53.38 -79.16,80.36 -144.53,80.36zm67.17 -321.45c-13.79,-23.39 -41.38,-35.39 -82.16,-35.39l-83.36 0 0 281.87 83.36 0c42.58,0 71.97,-20.99 88.76,-62.97 9.6,-22.79 13.8,-50.38 13.8,-82.16 0,-43.78 -6.6,-77.97 -20.39,-101.35z"/>
  <polygon id="_3_6" class="fil31" points="4811.34,8933.25 4903.1,8933.25 4781.95,9365.05 4695.59,9365.05 4643.42,9112.57 4628.42,9029.2 4612.83,9112.57 4560.66,9365.05 4477.3,9365.05 4354.95,8933.25 4450.3,8933.25 4507.88,9180.34 4519.88,9249.3 4532.47,9182.14 4581.04,8933.25 4676.4,8933.25 4727.38,9180.34 4740.57,9249.3 4753.76,9183.34 "/>
  <path id="_4_7" class="fil31" d="M5177.86 9276.29l-159.52 0 -29.39 88.76 -94.76 0 154.12 -431.8 101.95 0 152.93 431.8 -97.75 0 -27.59 -88.76zm-25.19 -74.37l-53.97 -169.72 -55.77 169.72 109.74 0z"/>
  <path id="_5_8" class="fil31" d="M5622.96 9354.26c-23.99,14.99 -53.38,22.19 -88.16,22.19 -56.97,0 -103.75,-19.79 -140.34,-59.38 -38.38,-39.58 -56.97,-94.15 -56.97,-163.72 0,-69.57 19.19,-125.94 57.57,-167.93 38.39,-41.98 89.36,-62.97 152.33,-62.97 55.17,0 98.95,13.8 132.54,41.38 32.98,28.19 52.17,62.98 56.97,104.36l-88.76 0c-6.6,-29.39 -23.39,-50.38 -49.78,-61.77 -14.99,-6.6 -31.78,-9.6 -49.77,-9.6 -34.78,0 -63.57,13.19 -85.76,38.99 -22.19,26.39 -33.59,65.97 -33.59,118.74 0,52.78 11.99,90.56 36.59,112.75 23.98,22.19 51.57,32.99 82.76,32.99 29.98,0 54.57,-8.4 74.36,-26.39 19.19,-17.4 31.19,-40.19 35.39,-68.37l-99.56 0 0 -71.97 179.31 0 0 231.49 -59.37 0 -8.99 -53.97c-17.39,20.39 -32.98,34.78 -46.78,43.18z"/>
  <path id="_6_9" class="fil31" d="M6077.44 9276.29l-159.52 0 -29.39 88.76 -94.76 0 154.12 -431.8 101.95 0 152.93 431.8 -97.75 0 -27.59 -88.76zm-25.19 -74.37l-53.97 -169.72 -55.77 169.72 109.74 0z"/>
  <path class="fil31" d="M9023.35 11023.22c-61.77,0 -109.15,-16.8 -141.53,-50.38 -43.78,-41.39 -65.97,-100.76 -65.97,-178.12 0,-79.16 22.19,-138.53 65.97,-178.11 32.39,-33.59 79.76,-50.38 141.53,-50.38 61.17,0 108.55,16.79 140.93,50.38 43.78,39.58 65.37,98.95 65.37,178.11 0,77.36 -21.59,136.73 -65.37,178.12 -32.39,33.58 -79.76,50.38 -140.93,50.38zm85.16 -115.75c20.39,-26.39 31.18,-64.17 31.18,-112.75 0,-48.58 -10.8,-85.76 -31.78,-112.15 -20.99,-26.39 -49.17,-39.59 -84.56,-39.59 -35.99,0 -64.77,13.2 -85.76,39.59 -21.59,26.39 -31.78,63.57 -31.78,112.15 0,48.58 10.19,86.36 31.78,112.75 20.99,26.39 49.77,39.58 85.76,39.58 35.39,0 63.57,-13.19 85.16,-39.58z"/>
  <polygon id="_1_10" class="fil31" points="9612.17,10579.42 9612.17,10656.19 9483.23,10656.19 9483.23,11011.22 9392.08,11011.22 9392.08,10656.19 9262.54,10656.19 9262.54,10579.42 "/>
  <polygon id="_2_11" class="fil31" points="10013.28,10579.42 9869.36,10848.7 9869.36,11011.22 9778.8,11011.22 9778.8,10848.7 9629.46,10579.42 9735.62,10579.42 9825.58,10767.74 9911.34,10579.42 "/>
  <polygon id="_3_12" class="fil31" points="10368.92,10933.86 10368.92,11011.22 10064.86,11011.22 10064.86,10845.7 10015.08,10877.48 10015.08,10820.52 10064.86,10789.93 10064.86,10579.42 10155.42,10579.42 10155.42,10735.96 10244.18,10682.58 10244.18,10737.16 10155.42,10790.53 10155.42,10933.86 "/>
  <path id="_4_13" class="fil31" d="M10622.51 11023.22c-61.77,0 -109.15,-16.8 -141.53,-50.38 -43.78,-41.39 -65.97,-100.76 -65.97,-178.12 0,-79.16 22.19,-138.53 65.97,-178.11 32.38,-33.59 79.76,-50.38 141.53,-50.38 61.17,0 108.55,16.79 140.93,50.38 43.78,39.58 65.37,98.95 65.37,178.11 0,77.36 -21.59,136.73 -65.37,178.12 -32.39,33.58 -79.77,50.38 -140.93,50.38zm85.16 -115.75c20.39,-26.39 31.18,-64.17 31.18,-112.75 0,-48.58 -10.8,-85.76 -31.78,-112.15 -20.99,-26.39 -49.18,-39.59 -84.56,-39.59 -35.99,0 -64.77,13.2 -85.76,39.59 -21.59,26.39 -31.78,63.57 -31.78,112.15 0,48.58 10.19,86.36 31.78,112.75 20.99,26.39 49.78,39.58 85.76,39.58 35.38,0 63.57,-13.19 85.16,-39.58z"/>
  <path id="_5_14" class="fil31" d="M11054.2 10948.86c21.59,0 38.98,-2.4 52.17,-7.2 25.19,-9 37.78,-25.79 37.78,-49.77 0,-14.4 -6.6,-25.19 -18.59,-32.99 -12.59,-7.8 -32.39,-14.39 -59.37,-20.39l-45.58 -10.2c-44.98,-10.19 -75.57,-20.99 -92.95,-32.98 -29.38,-20.39 -43.78,-50.98 -43.78,-93.56 0,-38.98 14.4,-70.76 42.58,-96.56 27.59,-25.19 68.97,-38.39 123.55,-38.39 45.57,0 84.56,12 116.34,36.59 32.39,23.99 49.18,58.77 50.38,104.95l-86.36 0c-1.8,-26.39 -13.19,-44.38 -34.18,-55.77 -13.8,-7.19 -31.19,-10.8 -52.17,-10.8 -23.39,0 -41.98,4.8 -55.78,14.4 -13.79,8.99 -20.99,22.19 -20.99,38.98 0,15.59 7.2,26.99 20.99,34.78 8.4,4.8 26.99,10.8 55.78,18l74.36 17.39c32.99,7.8 57.58,18.59 73.77,31.78 25.79,19.79 38.98,49.17 38.98,88.16 0,38.98 -14.99,71.97 -45.58,97.76 -29.99,26.38 -72.57,39.58 -127.74,39.58 -55.77,0 -100.15,-13.19 -132.54,-38.98 -32.39,-25.19 -47.98,-60.57 -47.98,-105.56l85.76 0c3,19.8 8.4,34.19 16.19,44.38 14.4,17.4 39.58,26.39 74.97,26.39zm-45.58 -427l56.38 -87.56 92.96 0 -88.76 87.56 -60.58 0z"/>
  <path id="_6_15" class="fil31" d="M11602.35 10978.84c-32.39,29.39 -73.17,44.38 -123.54,44.38 -62.37,0 -110.95,-19.79 -146.33,-59.98 -35.38,-39.58 -53.38,-94.75 -53.38,-164.32 0,-75.56 20.39,-133.14 60.57,-174.52 35.39,-35.39 79.76,-52.77 134.34,-52.77 72.57,0 125.34,23.39 158.92,71.36 18.6,26.39 28.79,53.38 29.99,80.37l-89.96 0c-5.99,-20.39 -13.79,-36.59 -22.79,-46.78 -16.19,-18.59 -40.78,-28.18 -73.16,-28.18 -32.39,0 -58.18,13.19 -77.37,39.58 -18.59,26.39 -28.18,64.17 -28.18,112.15 0,48.58 9.59,85.16 29.99,109.15 19.79,23.99 45.58,35.98 76.16,35.98 31.78,0 55.78,-10.2 72.57,-31.19 9,-10.8 16.8,-27.58 22.79,-49.77l89.36 0c-7.8,46.77 -28.19,85.16 -59.97,114.55zm-187.71 -436.6l56.38 -87.56 92.95 0 -88.76 87.56 -60.57 0z"/>
  <path class="fil31" d="M11181.86 14806.8c-61.77,0 -109.15,-16.8 -141.53,-50.38 -43.78,-41.39 -65.97,-100.75 -65.97,-178.12 0,-79.16 22.19,-138.53 65.97,-178.11 32.38,-33.59 79.76,-50.38 141.53,-50.38 61.17,0 108.55,16.79 140.93,50.38 43.78,39.58 65.37,98.95 65.37,178.11 0,77.37 -21.59,136.74 -65.37,178.12 -32.39,33.58 -79.77,50.38 -140.93,50.38zm85.16 -115.75c20.39,-26.39 31.18,-64.17 31.18,-112.75 0,-48.57 -10.8,-85.76 -31.78,-112.15 -20.99,-26.39 -49.18,-39.58 -84.56,-39.58 -35.99,0 -64.77,13.19 -85.76,39.58 -21.59,26.39 -31.78,63.57 -31.78,112.15 0,48.58 10.19,86.36 31.78,112.75 20.99,26.39 49.77,39.58 85.76,39.58 35.38,0 63.57,-13.19 85.16,-39.58z"/>
  <polygon id="_1_16" class="fil31" points="11770.68,14363 11770.68,14439.76 11641.74,14439.76 11641.74,14794.8 11550.58,14794.8 11550.58,14439.76 11421.04,14439.76 11421.04,14363 "/>
  <polygon id="_2_17" class="fil31" points="12171.8,14363 12027.86,14632.28 12027.86,14794.8 11937.3,14794.8 11937.3,14632.28 11787.98,14363 11894.12,14363 11984.08,14551.32 12069.85,14363 "/>
  <polygon id="_3_18" class="fil31" points="12527.43,14717.44 12527.43,14794.8 12223.38,14794.8 12223.38,14629.28 12173.6,14661.06 12173.6,14604.09 12223.38,14573.51 12223.38,14363 12313.93,14363 12313.93,14519.53 12402.69,14466.15 12402.69,14520.73 12313.93,14574.1 12313.93,14717.44 "/>
  <path id="_4_19" class="fil31" d="M12781.02 14806.8c-61.77,0 -109.15,-16.8 -141.53,-50.38 -43.78,-41.39 -65.97,-100.75 -65.97,-178.12 0,-79.16 22.19,-138.53 65.97,-178.11 32.39,-33.59 79.76,-50.38 141.53,-50.38 61.17,0 108.55,16.79 140.94,50.38 43.78,39.58 65.37,98.95 65.37,178.11 0,77.37 -21.59,136.74 -65.37,178.12 -32.39,33.58 -79.76,50.38 -140.94,50.38zm85.16 -115.75c20.39,-26.39 31.19,-64.17 31.19,-112.75 0,-48.57 -10.8,-85.76 -31.78,-112.15 -20.99,-26.39 -49.17,-39.58 -84.56,-39.58 -35.99,0 -64.77,13.19 -85.76,39.58 -21.59,26.39 -31.78,63.57 -31.78,112.15 0,48.58 10.19,86.36 31.78,112.75 20.99,26.39 49.77,39.58 85.76,39.58 35.39,0 63.57,-13.19 85.16,-39.58z"/>
  <path id="_5_20" class="fil31" d="M13212.71 14732.43c21.59,0 38.98,-2.4 52.18,-7.2 25.19,-8.99 37.78,-25.78 37.78,-49.77 0,-14.39 -6.6,-25.19 -18.59,-32.98 -12.59,-7.8 -32.39,-14.39 -59.37,-20.39l-45.58 -10.19c-44.98,-10.19 -75.56,-20.99 -92.95,-32.98 -29.39,-20.39 -43.78,-50.98 -43.78,-93.56 0,-38.98 14.4,-70.77 42.58,-96.56 27.58,-25.19 68.97,-38.39 123.54,-38.39 45.58,0 84.56,12 116.35,36.59 32.38,23.99 49.17,58.77 50.38,104.95l-86.36 0c-1.8,-26.39 -13.19,-44.38 -34.18,-55.77 -13.8,-7.19 -31.18,-10.8 -52.18,-10.8 -23.39,0 -41.98,4.8 -55.77,14.4 -13.79,9 -20.99,22.19 -20.99,38.99 0,15.59 7.2,26.99 20.99,34.78 8.4,4.8 26.99,10.8 55.77,18l74.37 17.39c32.98,7.79 57.57,18.59 73.76,31.78 25.79,19.79 38.99,49.17 38.99,88.16 0,38.98 -15,71.97 -45.58,97.75 -29.98,26.39 -72.56,39.58 -127.74,39.58 -55.78,0 -100.16,-13.19 -132.54,-38.98 -32.39,-25.19 -47.98,-60.58 -47.98,-105.56l85.76 0c2.99,19.8 8.4,34.19 16.19,44.38 14.4,17.4 39.58,26.39 74.97,26.39zm-45.58 -427l56.38 -87.56 92.95 0 -88.75 87.56 -60.57 0z"/>
  <path id="_6_21" class="fil31" d="M13760.86 14762.42c-32.39,29.38 -73.16,44.38 -123.54,44.38 -62.37,0 -110.95,-19.79 -146.34,-59.98 -35.38,-39.58 -53.38,-94.75 -53.38,-164.32 0,-75.56 20.4,-133.14 60.58,-174.52 35.39,-35.38 79.76,-52.77 134.33,-52.77 72.57,0 125.35,23.39 158.93,71.36 18.59,26.39 28.79,53.38 29.99,80.37l-89.96 0c-5.99,-20.39 -13.8,-36.59 -22.79,-46.78 -16.19,-18.59 -40.78,-28.18 -73.17,-28.18 -32.38,0 -58.17,13.19 -77.36,39.58 -18.59,26.39 -28.18,64.17 -28.18,112.15 0,48.58 9.59,85.16 29.99,109.15 19.79,23.98 45.58,35.98 76.16,35.98 31.78,0 55.77,-10.19 72.57,-31.18 8.99,-10.8 16.8,-27.58 22.79,-49.78l89.36 0c-7.8,46.78 -28.19,85.16 -59.98,114.55zm-187.71 -436.6l56.38 -87.56 92.95 0 -88.76 87.56 -60.57 0z"/>
  <polygon id="_7_22" class="fil31" points="11206.85,15394.52 11091.1,15394.52 10957.36,15206.21 10914.78,15249.98 10914.78,15394.52 10826.03,15394.52 10826.03,14962.72 10914.78,14962.72 10914.78,15140.84 11080.9,14962.72 11197.85,14962.72 11020.93,15140.84 "/>
  <polygon id="_8_23" class="fil31" points="11257.32,14962.72 11347.88,14962.72 11347.88,15317.15 11561.38,15317.15 11561.38,15394.52 11257.32,15394.52 "/>
  <polygon id="_9" class="fil31" points="11616.46,14962.72 11706.42,14962.72 11706.42,15394.52 11616.46,15394.52 "/>
  <polygon id="_10" class="fil31" points="12139.31,15394.52 12049.36,15394.52 11873.04,15088.06 11873.04,15394.52 11789.08,15394.52 11789.08,14962.72 11883.23,14962.72 12055.35,15264.38 12055.35,14962.72 12139.31,14962.72 "/>
  <polygon id="_11" class="fil31" points="12216.18,14962.72 12306.14,14962.72 12306.14,15394.52 12216.18,15394.52 "/>
  <path id="_12" class="fil31" d="M12694.65 15362.14c-32.39,29.39 -73.17,44.38 -123.54,44.38 -62.37,0 -110.95,-19.79 -146.33,-59.97 -35.38,-39.58 -53.38,-94.76 -53.38,-164.32 0,-75.57 20.39,-133.14 60.57,-174.52 35.39,-35.39 79.76,-52.78 134.34,-52.78 72.57,0 125.34,23.39 158.92,71.37 18.59,26.39 28.79,53.38 29.99,80.36l-89.96 0c-5.99,-20.39 -13.79,-36.58 -22.79,-46.78 -16.19,-18.59 -40.78,-28.18 -73.16,-28.18 -32.39,0 -58.18,13.19 -77.37,39.58 -18.59,26.39 -28.18,64.17 -28.18,112.15 0,48.57 9.59,85.16 29.98,109.15 19.79,23.99 45.58,35.98 76.17,35.98 31.78,0 55.78,-10.19 72.57,-31.18 9,-10.8 16.8,-27.59 22.79,-49.77l89.36 0c-7.8,46.77 -28.19,85.16 -59.97,114.55z"/>
  <polygon id="_13" class="fil31" points="13128.35,15394.52 12792.51,15394.52 12792.51,15318.36 13015.6,15039.48 12798.51,15039.48 12798.51,14962.72 13127.75,14962.72 13127.75,15035.29 12902.26,15318.36 13128.35,15318.36 "/>
  <polygon id="_14" class="fil31" points="13538.46,15394.52 13448.51,15394.52 13272.19,15088.06 13272.19,15394.52 13188.22,15394.52 13188.22,14962.72 13282.38,14962.72 13454.5,15264.38 13454.5,14962.72 13538.46,14962.72 "/>
  <path id="_15" class="fil31" d="M13875.6 15305.76l-159.52 0 -29.39 88.76 -94.75 0 154.12 -431.8 101.95 0 152.92 431.8 -97.75 0 -27.59 -88.76zm-25.19 -74.36l-53.97 -169.72 -55.77 169.72 109.75 0z"/>
 </g>
</svg>
